PathFileType	4	(X/Y/Z)	OpenSim_Sub04_CSStiffKnee_Gyro.trc
DataRate	CameraRate	NumFrames	NumMarkers	Units	OrigDataRate	OrigDataStartFrame	OrigNumFrames
100	100	16	8	m	100	4634	7413
Frame#	Time	torso_imu_offset_imu	pelvis_imu_offset_imu	tibia_r_imu_offset_imu	femur_r_imu_offset_imu	tibia_l_imu_offset_imu	femur_l_imu_offset_imu	toes_r_imu_offset_imu	toes_l_imu_offset_imu
				X1	Y1	Z1	X2	Y2	Z2	X3	Y3	Z3	X4	Y4	Z4	X5	Y5	Z5	X6	Y6	Z6	X7	Y7	Z7	X8		Y8	Z8	

4634	46.33000000	-0.11007144	-0.09335114	-0.07304420	-0.24163280	-0.37110642	-0.20225430	-0.41270316	0.01138752	-1.18527203	-0.19413738	0.16018295	-0.24378793	0.36568199	-0.18581979	-0.85916162	0.16790462	0.11468928	-0.66780727	0.02381156	-0.80631946	-0.37613405	0.30549329	-0.27683321	-0.25567807
4635	46.34000000	-0.06431644	-0.09715999	-0.07287272	-0.24157099	-0.41045863	-0.13523255	-0.37118880	0.03588121	-1.26168077	-0.10838022	0.18140720	-0.32250062	-0.01805206	-0.13991104	-0.43434035	0.26351327	0.12243727	-0.70772344	-0.06710554	-0.94011224	-0.28417562	-0.07564598	-0.71561031	-0.37008712
4636	46.35000000	0.00695429	-0.10281292	-0.06508665	-0.25562432	-0.45559423	-0.04612425	-0.31474094	0.06452025	-1.35166447	-0.07299057	0.21208560	-0.34959341	-0.58192453	-0.16869120	0.00827394	0.26712622	0.14275468	-0.74707924	-0.06602213	-1.07601514	-0.24372842	0.18026402	-1.47395567	-0.51155145
4637	46.36000000	0.09232498	-0.10905581	-0.05290889	-0.29287878	-0.50142783	0.04328218	-0.21901308	0.02992185	-1.46554881	-0.06949850	0.26271489	-0.26255656	-0.98306881	-0.25892360	0.39670628	0.16910055	0.15907875	-0.76182499	-0.13704052	-1.23593809	-0.20373947	-2.44162471	-1.68050455	-0.30623983
4638	46.37000000	0.16223536	-0.08625281	-0.03677990	-0.34233377	-0.52508822	0.12639008	-0.17661730	-0.02851543	-1.59972440	-0.05226836	0.32889708	-0.13607670	-1.50296738	-0.30406425	0.83544526	-0.03740715	0.15917951	-0.72430200	-0.17873151	-1.44211980	-0.19812173	-2.50785194	-1.75760128	0.15863095
4639	46.38000000	0.23524888	-0.03818767	-0.01201041	-0.41483366	-0.53287165	0.18741294	-0.14214929	-0.11977975	-1.74444999	-0.02107110	0.39333984	0.03570725	-2.24403190	-0.23847890	1.42223154	-0.30878904	0.12849290	-0.63713747	-0.21922298	-1.70720061	-0.23344798	-1.23583560	-0.32053830	0.79849142
4640	46.39000000	0.30434867	0.00108894	0.02151090	-0.51118456	-0.53154965	0.21305050	-0.07679878	-0.25183961	-1.92256644	0.00813205	0.43047274	0.26795628	-2.61864794	-0.32304382	2.20921093	-0.70244553	-0.00429828	-0.52701104	-0.29512210	-2.03972766	-0.29728158	-0.55551067	0.53429240	0.15216736
4641	46.40000000	0.38050644	0.00714040	0.02349172	-0.60034080	-0.50033306	0.19696362	-0.09744000	-0.35574854	-2.09002867	0.04639501	0.45094808	0.56015340	-1.98349112	-0.76885256	2.57145517	-1.08497983	-0.20763729	-0.29030138	-0.31426614	-2.42734066	-0.42758517	-0.45258373	0.04367821	-0.17737242
4642	46.41000000	0.44677520	-0.00934377	0.01084972	-0.65394621	-0.43813583	0.15085648	-0.09920854	-0.40106454	-2.26089233	0.18153515	0.50805346	0.85178856	-0.42053965	-0.73145296	1.73184855	-1.37524025	-0.54950082	0.12905220	-0.29870195	-2.88976227	-0.60198221	-0.26234358	0.06774013	0.02259175
4643	46.42000000	0.51107896	-0.03166890	0.00191488	-0.65595613	-0.33756841	0.07730039	-0.03881168	-0.42415083	-2.43852153	0.39574838	0.64052130	1.24641077	-0.19015697	-0.20575001	0.66141989	-1.40565967	-1.12926288	0.69481180	-0.38589199	-3.45455942	-0.75756962	0.08407597	0.08480031	-0.02664326
4644	46.43000000	0.55115114	-0.04360219	-0.01239053	-0.59158528	-0.21977287	-0.00265393	-0.02152225	-0.44217935	-2.56236008	0.80046827	0.71038939	1.26248864	-0.76048044	-0.30345546	0.31471215	-0.88709703	-1.69557645	1.15571079	-0.36700114	-4.06413513	-0.92064454	-0.21343827	-0.07177200	0.10366832
4645	46.44000000	0.55208743	-0.04298894	-0.04650265	-0.49699044	-0.13515636	-0.08516991	0.02166510	-0.50244965	-2.64044523	1.13940515	0.79401321	1.59769808	-0.71884125	-0.66080774	0.39208246	-0.09945249	-1.59593599	1.18964268	-0.37907235	-4.67378138	-1.13814645	-0.23332388	-0.13445817	0.15952613
4646	46.45000000	0.53990132	-0.04371363	-0.08548983	-0.39460804	-0.09665481	-0.14245267	0.18547950	-0.59340910	-2.70496744	1.23453898	0.90878212	2.03072940	-0.33972972	-0.50775004	0.54443995	0.39847976	-0.73601629	0.84025013	-0.43364091	-5.16026277	-1.38068945	-0.05039715	-0.10200359	0.05797717
4647	46.46000000	0.52099546	-0.02898857	-0.11190967	-0.29990861	-0.09674728	-0.16402097	0.39439470	-0.67453245	-2.75263036	1.21883109	1.00834843	2.25240615	0.13619439	-0.50349115	0.74616791	0.23257617	-0.16295910	0.49587606	-0.26223075	-5.43696234	-1.64533997	0.04271607	-0.13439818	-0.02849837
4648	46.47000000	0.50493768	0.00997944	-0.12422308	-0.22999202	-0.11479467	-0.17038254	0.55752346	-0.77105424	-2.78705583	1.11874701	1.10492464	2.53213377	0.41808212	-0.51196666	0.77335792	0.00684495	0.03180706	0.37678903	-0.21301457	-5.43713395	-1.90715167	0.08887593	-0.17915795	-0.05028802
4649	46.48000000	0.48018258	0.05059281	-0.13066561	-0.17164211	-0.11985838	-0.16893517	0.69292888	-0.82363112	-2.80677051	0.98190672	1.17153245	2.72395754	0.32561775	-0.43573666	0.66673816	0.00069549	0.09425277	0.42045695	-0.31553047	-5.29405010	-2.04602212	0.13749535	-0.19439100	-0.05660525
